<svg width="33" height="32" viewBox="0 0 33 32" fill="none" xmlns="http://www.w3.org/2000/svg">
<path d="M4.68215 3.58134L17.054 15.9532L4.77018 28.5987C4.75804 28.5779 4.7464 28.5567 4.73527 28.5354C4.70998 28.4874 4.6862 28.4383 4.66444 28.3882C4.53898 28.0978 4.48283 27.7791 4.50458 27.4579V4.54002C4.48637 4.20815 4.54859 3.87982 4.68215 3.58134Z" fill="white"/>
<path d="M5.39092 2.82502C5.4324 2.80529 5.4749 2.78809 5.5179 2.7719C5.68738 2.70815 5.86798 2.67274 6.05213 2.66718C6.44471 2.65605 6.82818 2.78353 7.13577 3.02687L21.6137 11.2599L17.7759 15.21L5.39092 2.82502Z" fill="white"/>
<path d="M22.539 11.7946L18.5089 15.943L22.6968 20.1309L27.3293 17.5012C28.7798 16.6726 28.7798 15.3253 27.3293 14.5068L22.539 11.7946Z" fill="white"/>
<path d="M21.7573 20.6565L17.787 16.6862L5.58316 29.2493C5.73291 29.2983 5.89024 29.3267 6.05061 29.3322C6.44218 29.3454 6.82616 29.2209 7.13577 28.9806L21.7573 20.6565Z" fill="white"/>
</svg>
