<svg width="32" height="32" viewBox="0 0 32 32" fill="none" xmlns="http://www.w3.org/2000/svg">
<path d="M23.4344 16.8501C23.4463 15.8274 23.7178 14.8245 24.2234 13.9354C24.729 13.0463 25.4521 12.3002 26.325 11.7671C25.7699 10.9759 25.0382 10.3249 24.1878 9.86572C23.3374 9.4065 22.3917 9.1517 21.4257 9.12151C19.3802 8.90105 17.3838 10.3463 16.3304 10.3463C15.2771 10.3463 13.6481 9.12151 11.9088 9.12151C10.7851 9.15807 9.68997 9.48534 8.7304 10.0714C7.77084 10.6574 6.9796 11.4822 6.43389 12.4653C4.11899 16.6174 5.83373 22.6068 8.09965 25.9628C9.23873 27.5918 10.5493 29.4045 12.3008 29.331C14.0523 29.2576 14.6279 28.2532 16.6856 28.2532C18.7433 28.2532 19.3067 29.331 21.0827 29.2943C22.8587 29.2575 24.059 27.6653 25.1491 26.024C25.9672 24.8696 26.5957 23.592 27.0109 22.2393C25.9512 21.7917 25.0469 21.0419 24.4109 20.0834C23.7748 19.125 23.4352 18.0004 23.4344 16.8501V16.8501Z" fill="white"/>
<path d="M20.0415 6.94112C21.0348 5.74804 21.5226 4.21415 21.4011 2.6665C19.8829 2.83036 18.4807 3.5555 17.4694 4.6997C16.9775 5.26018 16.601 5.91216 16.3614 6.61834C16.1218 7.32452 16.0238 8.07101 16.0731 8.8151C16.8332 8.82259 17.585 8.65788 18.2723 8.33333C18.9596 8.00878 19.5645 7.53281 20.0415 6.94112V6.94112Z" fill="white"/>
</svg>
