<svg width="32" height="32" viewBox="0 0 32 32" fill="none" xmlns="http://www.w3.org/2000/svg">
<path d="M4.18215 3.58134L16.554 15.9532L4.27018 28.5987C4.25804 28.5779 4.2464 28.5567 4.23527 28.5354C4.20998 28.4874 4.1862 28.4383 4.16444 28.3882C4.03898 28.0978 3.98283 27.7791 4.00458 27.4579V4.54002C3.98637 4.20815 4.04859 3.87982 4.18215 3.58134Z" fill="#F20244"/>
<path d="M4.89092 2.82502C4.9324 2.80529 4.9749 2.78809 5.0179 2.7719C5.18738 2.70815 5.36798 2.67274 5.55213 2.66718C5.94471 2.65605 6.32818 2.78353 6.63577 3.02687L21.1137 11.2599L17.2759 15.21L4.89092 2.82502Z" fill="#F20244"/>
<path d="M22.039 11.7946L18.0089 15.943L22.1968 20.1309L26.8293 17.5012C28.2798 16.6726 28.2798 15.3253 26.8293 14.5068L22.039 11.7946Z" fill="#F20244"/>
<path d="M21.2573 20.6565L17.287 16.6862L5.08316 29.2493C5.23291 29.2983 5.39024 29.3267 5.55061 29.3322C5.94218 29.3454 6.32616 29.2209 6.63577 28.9806L21.2573 20.6565Z" fill="#F20244"/>
</svg>
