<svg width="32" height="32" viewBox="0 0 32 32" fill="none" xmlns="http://www.w3.org/2000/svg">
<path d="M23.4345 16.8501C23.4463 15.8274 23.7178 14.8245 24.2234 13.9354C24.729 13.0463 25.4522 12.3002 26.325 11.7671C25.77 10.9759 25.0382 10.3249 24.1878 9.86572C23.3374 9.4065 22.3917 9.1517 21.4257 9.12151C19.3803 8.90105 17.3838 10.3463 16.3305 10.3463C15.2772 10.3463 13.6481 9.12151 11.9089 9.12151C10.7851 9.15807 9.69003 9.48534 8.73047 10.0714C7.77091 10.6574 6.97966 11.4822 6.43396 12.4653C4.11905 16.6174 5.83379 22.6068 8.09971 25.9628C9.23879 27.5918 10.5493 29.4045 12.3008 29.331C14.0523 29.2576 14.628 28.2532 16.6857 28.2532C18.7434 28.2532 19.3068 29.331 21.0828 29.2943C22.8588 29.2575 24.0591 27.6653 25.1492 26.024C25.9673 24.8696 26.5958 23.592 27.0109 22.2393C25.9513 21.7917 25.047 21.0419 24.4109 20.0834C23.7749 19.125 23.4352 18.0004 23.4345 16.8501V16.8501Z" fill="#F20244"/>
<path d="M20.0416 6.94112C21.0348 5.74804 21.5227 4.21415 21.4012 2.6665C19.8829 2.83036 18.4807 3.5555 17.4695 4.6997C16.9776 5.26018 16.6011 5.91216 16.3615 6.61834C16.1219 7.32452 16.0239 8.07101 16.0732 8.8151C16.8332 8.82259 17.5851 8.65788 18.2724 8.33333C18.9596 8.00878 19.5645 7.53281 20.0416 6.94112V6.94112Z" fill="#F20244"/>
</svg>
